<svg xmlns="http://www.w3.org/2000/svg" viewBox="0 0 64 64" width="64" height="64">
  <defs>
    <linearGradient id="tealGrad" x1="0%" y1="0%" x2="100%" y2="100%">
      <stop offset="0%" stop-color="#0ea5a0" />
      <stop offset="100%" stop-color="#0d7a76" />
    </linearGradient>
  </defs>
  <rect width="64" height="64" rx="16" fill="url(#tealGrad)" />
  <g transform="translate(8, 8) scale(2)" fill="#ffffff" stroke="#ffffff">
    <path d="M2 22.5c6-1.2 14-1.2 20 0" stroke="#ffffff" stroke-width="1.5" stroke-linecap="round" fill="none" />
    <path d="M5.5 14l-2 7.5" stroke="#ffffff" stroke-width="1.4" stroke-linecap="round" />
    <path d="M3.5 14.5h4" stroke="#ffffff" stroke-width="1.5" stroke-linecap="round" />
    <circle cx="5.5" cy="13.5" r="0.9" fill="#ffffff" />
    <path d="M11 2.2a2 2 0 0 1 2 2v1c0 .8-.5 1.5-1.2 1.8L11 7l-.8-.0A2 2 0 0 1 9 5V4.2a2 2 0 0 1 2-2z" fill="#ffffff" />
    <rect x="9" y="3.6" width="4" height="1.4" rx="0.6" fill="#ffffff" />
    <path d="M9.5 7.5L6 13" stroke="#ffffff" stroke-width="1.6" stroke-linecap="round" fill="none" />
    <path d="M9.5 7.5c.8-.3 2-.3 2.8 0 1.2 1.2 2 3.5 1.5 6.5-.5 3 0 5.5-.8 8.5h-3.8c-.8-3-.3-5.5-.8-8.5-.5-3 .3-5.3 1.1-6.5z" fill="#ffffff" />
    <path d="M12.5 7.5L16.5 4.5L18.5 2.5" stroke="#ffffff" stroke-width="1.6" stroke-linecap="round" fill="none" />
    <path d="M15 3.2l7-2" stroke="#ffffff" stroke-width="1.4" stroke-linecap="round" />
    <path d="M16 2.9L14.5 7.5h3.5L16 2.9z" fill="#ffffff" fill-opacity="0.35" stroke="none" />
    <path d="M16 2.9L14.5 7.5M16 2.9l1.8 4.6" stroke="#ffffff" stroke-width="0.9" />
    <path d="M14.2 7.5a1.8 1.8 0 0 0 3.6 0" stroke="#ffffff" stroke-width="1.2" fill="none" />
    <path d="M21 1.5L19.5 6.2h3.5L21 1.5z" fill="#ffffff" fill-opacity="0.35" stroke="none" />
    <path d="M21 1.5L19.5 6.2M21 1.5l1.8 4.7" stroke="#ffffff" stroke-width="0.9" />
    <path d="M19.2 6.2a1.8 1.8 0 0 0 3.6 0" stroke="#ffffff" stroke-width="1.2" fill="none" />
  </g>
</svg>